<svg fill="none" xmlns="http://www.w3.org/2000/svg" width="28" height="28">
                                    <path
                                        d="M14 9.5c.786-2.96 3.753-4.472 10.214-4.5a.815.815 0 0 1 .557.219.718.718 0 0 1 .23.531v13.5a.737.737 0 0 1-.231.53.805.805 0 0 1-.556.22C17.93 20 15.5 21.21 14 23c-1.491-1.781-3.929-3-10.214-3C3.3 20 3 19.623 3 19.16V5.75a.718.718 0 0 1 .23-.531A.786.786 0 0 1 3.785 5c6.46.028 9.428 1.54 10.214 4.5zM14 9v14"
                                        stroke="#F65B66" stroke-width="2" stroke-linecap="round"
                                        stroke-linejoin="round"></path>
                                </svg>