<svg width="39" height="35" viewBox="0 0 39 35" fill="none" xmlns="http://www.w3.org/2000/svg"><path d="M34.3132 34.3125C35.3243 34.3125 36.294 33.9108 37.009 33.1958C37.724 32.4809 38.1257 31.5111 38.1257 30.5V21.1899C38.1257 20.1787 37.724 19.209 37.009 18.494C36.294 17.779 35.3243 17.3774 34.3132 17.3774H29.0214C29.0214 16.0392 29.1015 14.6972 29.2578 13.359C29.4942 11.9408 29.8907 10.6788 30.4397 9.577C30.9925 8.47138 31.7016 7.60594 32.5708 6.97306C33.4363 6.26394 34.5381 5.90938 35.8801 5.90938V0C33.6727 0 31.7435 0.47275 30.0851 1.41825C28.4411 2.35416 27.0276 3.64647 25.9485 5.20025C24.8655 6.91326 24.0672 8.79047 23.5848 10.7589C23.0986 12.9311 22.8607 15.1515 22.8757 17.3774V30.5C22.8757 31.5111 23.2773 32.4809 23.9923 33.1958C24.7073 33.9108 25.677 34.3125 26.6882 34.3125H34.3132ZM11.4382 34.3125C12.4493 34.3125 13.419 33.9108 14.134 33.1958C14.849 32.4809 15.2507 31.5111 15.2507 30.5V21.1899C15.2507 20.1787 14.849 19.209 14.134 18.494C13.419 17.779 12.4493 17.3774 11.4382 17.3774H6.14641C6.14641 16.0392 6.22647 14.6972 6.38278 13.359C6.61916 11.9408 7.01566 10.6788 7.56466 9.577C8.11747 8.47138 8.8266 7.60594 9.69585 6.97306C10.5613 6.26394 11.6631 5.90938 13.0051 5.90938V0C10.7977 0 8.86853 0.47275 7.2101 1.41825C5.5661 2.35416 4.15263 3.64647 3.07354 5.20025C1.9905 6.91326 1.19224 8.79047 0.709786 10.7589C0.223639 12.9311 -0.0142609 15.1515 0.000660623 17.3774V30.5C0.000660623 31.5111 0.402333 32.4809 1.11732 33.1958C1.8323 33.9108 2.80202 34.3125 3.81316 34.3125H11.4382Z" fill="#20CAF2"></path></svg>